G04 Layer_Color=65535*
%FSLAX25Y25*%
%MOIN*%
G70*
G01*
G75*
%ADD17C,0.02000*%
%ADD24C,0.03937*%
%ADD25C,0.00600*%
%ADD26C,0.01000*%
%ADD27C,0.01102*%
%ADD28C,0.00787*%
%ADD29C,0.04000*%
%ADD30C,0.00500*%
%ADD31C,0.00800*%
D17*
X875000Y563997D02*
X881664D01*
X878332D01*
Y554000D01*
X886663D02*
X889995D01*
X891661Y555666D01*
Y558998D01*
X889995Y560665D01*
X886663D01*
X884997Y558998D01*
Y555666D01*
X886663Y554000D01*
X894993Y550668D02*
Y560665D01*
X899992D01*
X901658Y558998D01*
Y555666D01*
X899992Y554000D01*
X894993D01*
X919985Y563997D02*
X916653D01*
X914987Y562331D01*
Y555666D01*
X916653Y554000D01*
X919985D01*
X921652Y555666D01*
Y562331D01*
X919985Y563997D01*
X924984Y560665D02*
X928316Y554000D01*
X931648Y560665D01*
X939979Y554000D02*
X936647D01*
X934981Y555666D01*
Y558998D01*
X936647Y560665D01*
X939979D01*
X941645Y558998D01*
Y557332D01*
X934981D01*
X944977Y560665D02*
Y554000D01*
Y557332D01*
X946644Y558998D01*
X948310Y560665D01*
X949976D01*
X954974Y554000D02*
X958306D01*
X956640D01*
Y563997D01*
X954974D01*
X964971Y560665D02*
X968303D01*
X969969Y558998D01*
Y554000D01*
X964971D01*
X963305Y555666D01*
X964971Y557332D01*
X969969D01*
X973302Y560665D02*
Y555666D01*
X974968Y554000D01*
X979966D01*
Y552334D01*
X978300Y550668D01*
X976634D01*
X979966Y554000D02*
Y560665D01*
D24*
X326772Y442913D02*
G03*
X326772Y442913I-1969J0D01*
G01*
D25*
X480759Y466535D02*
G03*
X480759Y466535I-3200J0D01*
G01*
X500838D02*
G03*
X500838Y466535I-3200J0D01*
G01*
X496901Y427165D02*
G03*
X496901Y427165I-3200J0D01*
G01*
X489027Y443701D02*
G03*
X489027Y443701I-3200J0D01*
G01*
X559302Y413386D02*
G03*
X559302Y413386I-3200J0D01*
G01*
Y472441D02*
G03*
X559302Y472441I-3200J0D01*
G01*
X453694Y440945D02*
Y441945D01*
Y441445D01*
X456693D01*
Y440945D01*
Y441945D01*
Y443444D02*
X453694D01*
X456693Y445443D01*
X453694D01*
X484449Y471457D02*
Y474456D01*
X485948D01*
X486448Y473956D01*
Y472956D01*
X485948Y472456D01*
X484449D01*
X485449D02*
X486448Y471457D01*
X489447Y473956D02*
X488947Y474456D01*
X487948D01*
X487448Y473956D01*
Y471956D01*
X487948Y471457D01*
X488947D01*
X489447Y471956D01*
Y472956D01*
X488448D01*
X490447Y471457D02*
X491447D01*
X490947D01*
Y474456D01*
X490447Y473956D01*
X474606Y459692D02*
Y457693D01*
X475606Y456693D01*
X476606Y457693D01*
Y459692D01*
X479605Y459192D02*
X479105Y459692D01*
X478105D01*
X477605Y459192D01*
Y458692D01*
X478105Y458192D01*
X479105D01*
X479605Y457693D01*
Y457193D01*
X479105Y456693D01*
X478105D01*
X477605Y457193D01*
X490158Y459692D02*
Y457693D01*
X491157Y456693D01*
X492157Y457693D01*
Y459692D01*
X493156D02*
X494156D01*
X493656D01*
Y456693D01*
X493156D01*
X494156D01*
X495656D02*
Y459692D01*
X497655Y456693D01*
Y459692D01*
X498655Y458192D02*
X500654D01*
X499654Y459192D02*
Y457193D01*
X504921Y471457D02*
Y474456D01*
X506421D01*
X506921Y473956D01*
Y472956D01*
X506421Y472456D01*
X504921D01*
X505921D02*
X506921Y471457D01*
X509920Y474456D02*
X507920D01*
Y472956D01*
X508920D01*
X507920D01*
Y471457D01*
X510919D02*
X511919D01*
X511419D01*
Y474456D01*
X510919Y473956D01*
X497001Y444913D02*
Y442913D01*
X498500D01*
Y443913D01*
Y442913D01*
X500000D01*
X497001Y445912D02*
X500000D01*
Y447412D01*
X499500Y447912D01*
X497501D01*
X497001Y447412D01*
Y445912D01*
X500000Y448911D02*
X498001D01*
X497001Y449911D01*
X498001Y450911D01*
X500000D01*
X498500D01*
Y448911D01*
X489764Y435283D02*
Y433283D01*
X490764Y432283D01*
X491763Y433283D01*
Y435283D01*
X492763D02*
X493762D01*
X493263D01*
Y432283D01*
X492763D01*
X493762D01*
X495262D02*
Y435283D01*
X497261Y432283D01*
Y435283D01*
X498261Y433783D02*
X500260D01*
X478346Y419685D02*
Y422684D01*
X479846D01*
X480346Y422184D01*
Y421185D01*
X479846Y420685D01*
X478346D01*
X479346D02*
X480346Y419685D01*
X483345Y422184D02*
X482845Y422684D01*
X481845D01*
X481346Y422184D01*
Y420185D01*
X481845Y419685D01*
X482845D01*
X483345Y420185D01*
Y421185D01*
X482345D01*
X486344Y419685D02*
X484344D01*
X486344Y421684D01*
Y422184D01*
X485844Y422684D01*
X484844D01*
X484344Y422184D01*
X516732Y426181D02*
Y429180D01*
X518232D01*
X518732Y428680D01*
Y427681D01*
X518232Y427181D01*
X516732D01*
X517732D02*
X518732Y426181D01*
X521731Y429180D02*
X519731D01*
Y427681D01*
X520731D01*
X519731D01*
Y426181D01*
X524730D02*
X522730D01*
X524730Y428181D01*
Y428680D01*
X524230Y429180D01*
X523230D01*
X522730Y428680D01*
X468110Y444731D02*
Y442732D01*
X469110Y441732D01*
X470110Y442732D01*
Y444731D01*
X472609D02*
X471609D01*
X471109Y444232D01*
Y442232D01*
X471609Y441732D01*
X472609D01*
X473109Y442232D01*
Y444232D01*
X472609Y444731D01*
X476108Y444232D02*
X475608Y444731D01*
X474608D01*
X474108Y444232D01*
Y442232D01*
X474608Y441732D01*
X475608D01*
X476108Y442232D01*
X477107Y441732D02*
Y444731D01*
X478107Y443732D01*
X479107Y444731D01*
Y441732D01*
X499016Y418307D02*
Y421306D01*
X500515D01*
X501015Y420806D01*
Y419807D01*
X500515Y419307D01*
X499016D01*
X503514Y421306D02*
X502515D01*
X502015Y420806D01*
Y418807D01*
X502515Y418307D01*
X503514D01*
X504014Y418807D01*
Y420806D01*
X503514Y421306D01*
X505014D02*
Y418307D01*
X506013Y419307D01*
X507013Y418307D01*
Y421306D01*
X510012D02*
X508013D01*
Y418307D01*
X510012D01*
X508013Y419807D02*
X509013D01*
X511012Y418307D02*
Y421306D01*
X512511D01*
X513011Y420806D01*
Y419807D01*
X512511Y419307D01*
X511012D01*
X512011D02*
X513011Y418307D01*
X567867Y470003D02*
Y469004D01*
X568367Y468504D01*
X570366D01*
X570866Y469004D01*
Y470003D01*
X570366Y470503D01*
X568367D01*
X567867Y470003D01*
Y471503D02*
X570366D01*
X570866Y472003D01*
Y473002D01*
X570366Y473502D01*
X567867D01*
Y474502D02*
Y476501D01*
Y475502D01*
X570866D01*
X569367Y477501D02*
Y479500D01*
X567867Y410948D02*
Y409949D01*
X568367Y409449D01*
X570366D01*
X570866Y409949D01*
Y410948D01*
X570366Y411448D01*
X568367D01*
X567867Y410948D01*
Y412448D02*
X570366D01*
X570866Y412948D01*
Y413947D01*
X570366Y414447D01*
X567867D01*
Y415447D02*
Y417446D01*
Y416447D01*
X570866D01*
X569367Y418446D02*
Y420445D01*
X568367Y419446D02*
X570366D01*
X528220Y457452D02*
X527720Y457952D01*
X526720D01*
X526221Y457452D01*
Y455453D01*
X526720Y454953D01*
X527720D01*
X528220Y455453D01*
X530719Y454953D02*
Y457952D01*
X529219Y456452D01*
X531219D01*
X537068Y457478D02*
X536568Y457978D01*
X535568D01*
X535069Y457478D01*
Y455479D01*
X535568Y454979D01*
X536568D01*
X537068Y455479D01*
X538067Y457478D02*
X538567Y457978D01*
X539567D01*
X540067Y457478D01*
Y456978D01*
X539567Y456478D01*
X539067D01*
X539567D01*
X540067Y455978D01*
Y455479D01*
X539567Y454979D01*
X538567D01*
X538067Y455479D01*
X545916Y457505D02*
X545416Y458005D01*
X544416D01*
X543917Y457505D01*
Y455505D01*
X544416Y455006D01*
X545416D01*
X545916Y455505D01*
X548915Y455006D02*
X546916D01*
X548915Y457005D01*
Y457505D01*
X548415Y458005D01*
X547415D01*
X546916Y457505D01*
X490895Y415120D02*
X490395Y415620D01*
X489395D01*
X488895Y415120D01*
Y413121D01*
X489395Y412621D01*
X490395D01*
X490895Y413121D01*
X491894Y412621D02*
X492894D01*
X492394D01*
Y415620D01*
X491894Y415120D01*
X553152Y422435D02*
Y420435D01*
X554152Y419436D01*
X555152Y420435D01*
Y422435D01*
X557651D02*
X556651D01*
X556151Y421935D01*
Y419936D01*
X556651Y419436D01*
X557651D01*
X558151Y419936D01*
Y421935D01*
X557651Y422435D01*
X559150Y420935D02*
X561150D01*
X560150Y421935D02*
Y419936D01*
X553152Y481490D02*
Y479491D01*
X554152Y478491D01*
X555152Y479491D01*
Y481490D01*
X557651D02*
X556651D01*
X556151Y480990D01*
Y478991D01*
X556651Y478491D01*
X557651D01*
X558151Y478991D01*
Y480990D01*
X557651Y481490D01*
X559150Y479990D02*
X561150D01*
D26*
X501917Y436221D02*
G03*
X501917Y436221I-440J0D01*
G01*
X523827Y420433D02*
G03*
X523827Y420433I-1000J0D01*
G01*
X394173Y471654D02*
X448819D01*
X394173Y413779D02*
Y471654D01*
Y413779D02*
X448819D01*
Y471654D01*
X358661Y467323D02*
X394173D01*
X358661Y418504D02*
X394173D01*
X358661D02*
Y467323D01*
X311417Y424016D02*
X358661D01*
X311417Y462205D02*
X358661D01*
X311417Y424016D02*
Y462205D01*
X521957Y438673D02*
Y455028D01*
X521153Y438673D02*
X521957D01*
X521153Y455028D02*
X521957D01*
X501665Y438673D02*
X502468D01*
X501665Y455028D02*
X502468D01*
X501665Y438673D02*
Y455028D01*
X402939Y487433D02*
X402106Y488266D01*
X400439D01*
X399606Y487433D01*
Y486600D01*
X400439Y485767D01*
X402106D01*
X402939Y484934D01*
Y484101D01*
X402106Y483268D01*
X400439D01*
X399606Y484101D01*
X404605Y483268D02*
X406271D01*
X405438D01*
Y486600D01*
X404605D01*
X408770Y483268D02*
Y486600D01*
X411269D01*
X412102Y485767D01*
Y483268D01*
X415435Y481602D02*
X416268D01*
X417101Y482435D01*
Y486600D01*
X414601D01*
X413768Y485767D01*
Y484101D01*
X414601Y483268D01*
X417101D01*
X418767D02*
X420433D01*
X419600D01*
Y488266D01*
X418767D01*
X425431Y483268D02*
X423765D01*
X422932Y484101D01*
Y485767D01*
X423765Y486600D01*
X425431D01*
X426264Y485767D01*
Y484934D01*
X422932D01*
X427930Y485767D02*
X431263D01*
X436261Y488266D02*
X432929D01*
Y483268D01*
X436261D01*
X432929Y485767D02*
X434595D01*
X437927Y483268D02*
Y486600D01*
X440426D01*
X441259Y485767D01*
Y483268D01*
X446258Y488266D02*
Y483268D01*
X443759D01*
X442926Y484101D01*
Y485767D01*
X443759Y486600D01*
X446258D01*
X450423Y483268D02*
X448757D01*
X447924Y484101D01*
Y485767D01*
X448757Y486600D01*
X450423D01*
X451256Y485767D01*
Y484934D01*
X447924D01*
X456255Y488266D02*
Y483268D01*
X453755D01*
X452922Y484101D01*
Y485767D01*
X453755Y486600D01*
X456255D01*
X463752Y487433D02*
Y486600D01*
X462919D01*
X464585D01*
X463752D01*
Y484101D01*
X464585Y483268D01*
X467917D02*
X469584D01*
X470417Y484101D01*
Y485767D01*
X469584Y486600D01*
X467917D01*
X467084Y485767D01*
Y484101D01*
X467917Y483268D01*
X477081Y488266D02*
Y483268D01*
X479580D01*
X480413Y484101D01*
Y487433D01*
X479580Y488266D01*
X477081D01*
X482080Y483268D02*
X483746D01*
X482913D01*
Y486600D01*
X482080D01*
X487078Y483268D02*
Y487433D01*
Y485767D01*
X486245D01*
X487911D01*
X487078D01*
Y487433D01*
X487911Y488266D01*
X491243Y483268D02*
Y487433D01*
Y485767D01*
X490410D01*
X492076D01*
X491243D01*
Y487433D01*
X492076Y488266D01*
X497075Y483268D02*
X495409D01*
X494576Y484101D01*
Y485767D01*
X495409Y486600D01*
X497075D01*
X497908Y485767D01*
Y484934D01*
X494576D01*
X499574Y486600D02*
Y483268D01*
Y484934D01*
X500407Y485767D01*
X501240Y486600D01*
X502073D01*
X507071Y483268D02*
X505405D01*
X504572Y484101D01*
Y485767D01*
X505405Y486600D01*
X507071D01*
X507905Y485767D01*
Y484934D01*
X504572D01*
X509571Y483268D02*
Y486600D01*
X512070D01*
X512903Y485767D01*
Y483268D01*
X515402Y487433D02*
Y486600D01*
X514569D01*
X516235D01*
X515402D01*
Y484101D01*
X516235Y483268D01*
X518734D02*
X520400D01*
X519567D01*
Y486600D01*
X518734D01*
X523733D02*
X525399D01*
X526232Y485767D01*
Y483268D01*
X523733D01*
X522900Y484101D01*
X523733Y484934D01*
X526232D01*
X527898Y483268D02*
X529564D01*
X528731D01*
Y488266D01*
X527898D01*
X537062Y483268D02*
Y486600D01*
X538728Y488266D01*
X540394Y486600D01*
Y483268D01*
Y485767D01*
X537062D01*
X545392Y488266D02*
Y483268D01*
X542893D01*
X542060Y484101D01*
Y485767D01*
X542893Y486600D01*
X545392D01*
X547892D02*
X549558D01*
X550391Y485767D01*
Y483268D01*
X547892D01*
X547058Y484101D01*
X547892Y484934D01*
X550391D01*
X552057Y481602D02*
Y486600D01*
X554556D01*
X555389Y485767D01*
Y484101D01*
X554556Y483268D01*
X552057D01*
X557888Y487433D02*
Y486600D01*
X557055D01*
X558721D01*
X557888D01*
Y484101D01*
X558721Y483268D01*
X563720D02*
X562054D01*
X561221Y484101D01*
Y485767D01*
X562054Y486600D01*
X563720D01*
X564553Y485767D01*
Y484934D01*
X561221D01*
X566219Y486600D02*
Y483268D01*
Y484934D01*
X567052Y485767D01*
X567885Y486600D01*
X568718D01*
D27*
X574567Y472441D02*
G03*
X574567Y472441I-551J0D01*
G01*
Y413386D02*
G03*
X574567Y413386I-551J0D01*
G01*
D28*
X485902Y464035D02*
X488902D01*
X485902Y469035D02*
X488902D01*
X506374Y464035D02*
X509374D01*
X506374Y469035D02*
X509374D01*
X480784Y424665D02*
X483783D01*
X480784Y429665D02*
X483783D01*
X506374Y424665D02*
X509374D01*
X506374Y429665D02*
X509374D01*
X497827Y395433D02*
Y415433D01*
X523827Y395433D02*
Y415433D01*
X497827Y395433D02*
X523827D01*
X497827Y415433D02*
X523827D01*
X526043Y445350D02*
Y448350D01*
X531043Y445350D02*
Y448350D01*
X534902Y445350D02*
Y448350D01*
X539902Y445350D02*
Y448350D01*
X543760Y445350D02*
Y448350D01*
X548760Y445350D02*
Y448350D01*
X493642Y403028D02*
Y406028D01*
X488642Y403028D02*
Y406028D01*
D29*
X499827Y397433D02*
Y413433D01*
D30*
X575551Y475984D02*
Y479921D01*
Y464961D02*
Y468898D01*
X590158Y475984D02*
Y479921D01*
Y464961D02*
Y468898D01*
X575551Y416929D02*
Y420866D01*
Y405905D02*
Y409842D01*
X590158Y416929D02*
Y420866D01*
Y405905D02*
Y409842D01*
D31*
X530225Y401797D02*
X529558Y402463D01*
X528226D01*
X527559Y401797D01*
Y399131D01*
X528226Y398465D01*
X529558D01*
X530225Y399131D01*
Y400464D01*
X528892D01*
X531558Y398465D02*
Y402463D01*
X534224Y398465D01*
Y402463D01*
X535557D02*
Y398465D01*
X537556D01*
X538222Y399131D01*
Y401797D01*
X537556Y402463D01*
X535557D01*
X527559Y411797D02*
X528226Y412463D01*
X529558D01*
X530225Y411797D01*
Y411130D01*
X529558Y410464D01*
X528892D01*
X529558D01*
X530225Y409797D01*
Y409131D01*
X529558Y408465D01*
X528226D01*
X527559Y409131D01*
X531558Y412463D02*
Y409797D01*
X532891Y408465D01*
X534224Y409797D01*
Y412463D01*
X535557Y411797D02*
X536223Y412463D01*
X537556D01*
X538222Y411797D01*
Y411130D01*
X537556Y410464D01*
X536889D01*
X537556D01*
X538222Y409797D01*
Y409131D01*
X537556Y408465D01*
X536223D01*
X535557Y409131D01*
M02*
