M48
;Layer_Color=9474304
;FILE_FORMAT=2:5
INCH,LZ
;TYPE=PLATED
T1F00S00C0.01200
T2F00S00C0.02400
T3F00S00C0.03504
T4F00S00C0.04000
T5F00S00C0.07913
%
T01
X0496063Y0401181
X05
X0503937
X0477559Y0437402
X0524016Y0450197
X0532972
X0541831
X0550787
X0576772Y046063
X0580709
X0584646
X0588583
Y0424213
X0584646
X0580709
X0576772
Y0402559
X0580709
X0584646
X0588583
Y0484252
X0584646
X0580709
X0576772
T02
X0493701Y0427165
X0485827Y0443701
X0477559Y0466535
X0497638
X0556102Y0413386
Y0472441
T03
X0442913Y0432913
Y0442913
T04
X0510827Y0400433
Y0410433
T05
X0422913Y0422913
Y0462913
M30
