G04 Layer_Physical_Order=2*
G04 Layer_Color=16711680*
%FSLAX25Y25*%
%MOIN*%
G70*
G01*
G75*
%ADD12R,0.16535X0.05315*%
%ADD17C,0.02000*%
%ADD18C,0.11811*%
%ADD19C,0.06890*%
%ADD20C,0.05000*%
%ADD21R,0.06500X0.06500*%
%ADD22C,0.06500*%
%ADD23C,0.02400*%
G36*
X590551Y393701D02*
X393701D01*
Y492126D01*
X590551D01*
Y393701D01*
D02*
G37*
%LPC*%
G36*
X422913Y429450D02*
X421638Y429325D01*
X420412Y428953D01*
X419282Y428349D01*
X418291Y427536D01*
X417478Y426545D01*
X416874Y425415D01*
X416502Y424189D01*
X416376Y422913D01*
X416502Y421638D01*
X416874Y420412D01*
X417478Y419282D01*
X418291Y418291D01*
X419282Y417478D01*
X420412Y416874D01*
X421638Y416502D01*
X422913Y416376D01*
X424189Y416502D01*
X425415Y416874D01*
X426545Y417478D01*
X427536Y418291D01*
X428349Y419282D01*
X428953Y420412D01*
X429325Y421638D01*
X429450Y422913D01*
X429325Y424189D01*
X428953Y425415D01*
X428349Y426545D01*
X427536Y427536D01*
X426545Y428349D01*
X425415Y428953D01*
X424189Y429325D01*
X422913Y429450D01*
D02*
G37*
G36*
X493701Y430292D02*
X492892Y430186D01*
X492137Y429873D01*
X491490Y429376D01*
X490993Y428729D01*
X490681Y427975D01*
X490574Y427165D01*
X490681Y426356D01*
X490993Y425602D01*
X491490Y424954D01*
X492137Y424458D01*
X492892Y424145D01*
X493701Y424039D01*
X494510Y424145D01*
X495264Y424458D01*
X495912Y424954D01*
X496409Y425602D01*
X496721Y426356D01*
X496828Y427165D01*
X496721Y427975D01*
X496409Y428729D01*
X495912Y429376D01*
X495264Y429873D01*
X494510Y430186D01*
X493701Y430292D01*
D02*
G37*
G36*
X514677Y414283D02*
X506977D01*
Y406583D01*
X514677D01*
Y414283D01*
D02*
G37*
G36*
X556102Y416513D02*
X555293Y416406D01*
X554539Y416094D01*
X553891Y415597D01*
X553395Y414949D01*
X553082Y414195D01*
X552976Y413386D01*
X553082Y412577D01*
X553395Y411823D01*
X553891Y411175D01*
X554539Y410678D01*
X555293Y410366D01*
X556102Y410259D01*
X556912Y410366D01*
X557666Y410678D01*
X558313Y411175D01*
X558810Y411823D01*
X559123Y412577D01*
X559229Y413386D01*
X559123Y414195D01*
X558810Y414949D01*
X558313Y415597D01*
X557666Y416094D01*
X556912Y416406D01*
X556102Y416513D01*
D02*
G37*
G36*
X442913Y446993D02*
X441857Y446854D01*
X440873Y446447D01*
X440028Y445798D01*
X439380Y444953D01*
X438973Y443969D01*
X438834Y442913D01*
X438973Y441857D01*
X439380Y440873D01*
X440028Y440028D01*
X440873Y439380D01*
X441857Y438973D01*
X442913Y438834D01*
X443969Y438973D01*
X444953Y439380D01*
X445798Y440028D01*
X446447Y440873D01*
X446854Y441857D01*
X446993Y442913D01*
X446854Y443969D01*
X446447Y444953D01*
X445798Y445798D01*
X444953Y446447D01*
X443969Y446854D01*
X442913Y446993D01*
D02*
G37*
G36*
X497638Y469662D02*
X496829Y469556D01*
X496074Y469243D01*
X495427Y468746D01*
X494930Y468099D01*
X494618Y467345D01*
X494511Y466535D01*
X494618Y465726D01*
X494930Y464972D01*
X495427Y464325D01*
X496074Y463828D01*
X496829Y463515D01*
X497638Y463409D01*
X498447Y463515D01*
X499201Y463828D01*
X499849Y464325D01*
X500346Y464972D01*
X500658Y465726D01*
X500765Y466535D01*
X500658Y467345D01*
X500346Y468099D01*
X499849Y468746D01*
X499201Y469243D01*
X498447Y469556D01*
X497638Y469662D01*
D02*
G37*
G36*
X556102Y475568D02*
X555293Y475461D01*
X554539Y475149D01*
X553891Y474652D01*
X553395Y474004D01*
X553082Y473250D01*
X552976Y472441D01*
X553082Y471632D01*
X553395Y470878D01*
X553891Y470230D01*
X554539Y469733D01*
X555293Y469421D01*
X556102Y469314D01*
X556912Y469421D01*
X557666Y469733D01*
X558313Y470230D01*
X558810Y470878D01*
X559123Y471632D01*
X559229Y472441D01*
X559123Y473250D01*
X558810Y474004D01*
X558313Y474652D01*
X557666Y475149D01*
X556912Y475461D01*
X556102Y475568D01*
D02*
G37*
G36*
X477559Y469662D02*
X476750Y469556D01*
X475996Y469243D01*
X475348Y468746D01*
X474851Y468099D01*
X474539Y467345D01*
X474432Y466535D01*
X474539Y465726D01*
X474851Y464972D01*
X475348Y464325D01*
X475996Y463828D01*
X476750Y463515D01*
X477559Y463409D01*
X478368Y463515D01*
X479122Y463828D01*
X479770Y464325D01*
X480267Y464972D01*
X480579Y465726D01*
X480686Y466535D01*
X480579Y467345D01*
X480267Y468099D01*
X479770Y468746D01*
X479122Y469243D01*
X478368Y469556D01*
X477559Y469662D01*
D02*
G37*
G36*
X485827Y446828D02*
X485017Y446721D01*
X484263Y446409D01*
X483616Y445912D01*
X483119Y445264D01*
X482807Y444510D01*
X482700Y443701D01*
X482807Y442892D01*
X483119Y442137D01*
X483616Y441490D01*
X484263Y440993D01*
X485017Y440681D01*
X485827Y440574D01*
X486636Y440681D01*
X487390Y440993D01*
X488038Y441490D01*
X488535Y442137D01*
X488847Y442892D01*
X488953Y443701D01*
X488847Y444510D01*
X488535Y445264D01*
X488038Y445912D01*
X487390Y446409D01*
X486636Y446721D01*
X485827Y446828D01*
D02*
G37*
G36*
X422913Y469450D02*
X421638Y469325D01*
X420412Y468953D01*
X419282Y468349D01*
X418291Y467536D01*
X417478Y466545D01*
X416874Y465415D01*
X416502Y464189D01*
X416376Y462913D01*
X416502Y461638D01*
X416874Y460412D01*
X417478Y459282D01*
X418291Y458291D01*
X419282Y457478D01*
X420412Y456874D01*
X421638Y456502D01*
X422913Y456376D01*
X424189Y456502D01*
X425415Y456874D01*
X426545Y457478D01*
X427536Y458291D01*
X428349Y459282D01*
X428953Y460412D01*
X429325Y461638D01*
X429450Y462913D01*
X429325Y464189D01*
X428953Y465415D01*
X428349Y466545D01*
X427536Y467536D01*
X426545Y468349D01*
X425415Y468953D01*
X424189Y469325D01*
X422913Y469450D01*
D02*
G37*
%LPD*%
D12*
X582283Y483563D02*
D03*
Y461319D02*
D03*
Y424508D02*
D03*
Y402264D02*
D03*
D17*
X875000Y509997D02*
Y500000D01*
X879998D01*
X881664Y501666D01*
Y503332D01*
X879998Y504998D01*
X875000D01*
X879998D01*
X881664Y506665D01*
Y508331D01*
X879998Y509997D01*
X875000D01*
X886663Y500000D02*
X889995D01*
X891661Y501666D01*
Y504998D01*
X889995Y506665D01*
X886663D01*
X884997Y504998D01*
Y501666D01*
X886663Y500000D01*
X896660Y508331D02*
Y506665D01*
X894993D01*
X898326D01*
X896660D01*
Y501666D01*
X898326Y500000D01*
X904990Y508331D02*
Y506665D01*
X903324D01*
X906656D01*
X904990D01*
Y501666D01*
X906656Y500000D01*
X913321D02*
X916653D01*
X918319Y501666D01*
Y504998D01*
X916653Y506665D01*
X913321D01*
X911655Y504998D01*
Y501666D01*
X913321Y500000D01*
X921652D02*
Y506665D01*
X923318D01*
X924984Y504998D01*
Y500000D01*
Y504998D01*
X926650Y506665D01*
X928316Y504998D01*
Y500000D01*
X941645Y509997D02*
Y500000D01*
X948310D01*
X953308Y506665D02*
X956640D01*
X958306Y504998D01*
Y500000D01*
X953308D01*
X951642Y501666D01*
X953308Y503332D01*
X958306D01*
X961639Y506665D02*
Y501666D01*
X963305Y500000D01*
X968303D01*
Y498334D01*
X966637Y496668D01*
X964971D01*
X968303Y500000D02*
Y506665D01*
X976634Y500000D02*
X973302D01*
X971635Y501666D01*
Y504998D01*
X973302Y506665D01*
X976634D01*
X978300Y504998D01*
Y503332D01*
X971635D01*
X981632Y506665D02*
Y500000D01*
Y503332D01*
X983298Y504998D01*
X984964Y506665D01*
X986631D01*
D18*
X422913Y462913D02*
D03*
Y422913D02*
D03*
D19*
X442913Y442913D02*
D03*
Y432913D02*
D03*
D20*
X477559Y466535D02*
D03*
X497638D02*
D03*
X493701Y427165D02*
D03*
X485827Y443701D02*
D03*
X556102Y413386D02*
D03*
Y472441D02*
D03*
D21*
X510827Y410433D02*
D03*
D22*
Y400433D02*
D03*
D23*
X477559Y437402D02*
D03*
X550787Y450197D02*
D03*
X541831D02*
D03*
X532972D02*
D03*
X524016D02*
D03*
X503937Y401181D02*
D03*
X500000D02*
D03*
X496063D02*
D03*
X576772Y484252D02*
D03*
X580709D02*
D03*
X584646D02*
D03*
X588583D02*
D03*
X576772Y460630D02*
D03*
X580709D02*
D03*
X584646D02*
D03*
X588583D02*
D03*
X576772Y402559D02*
D03*
X580709D02*
D03*
X584646D02*
D03*
X588583D02*
D03*
Y424213D02*
D03*
X576772D02*
D03*
X584646D02*
D03*
X580709D02*
D03*
M02*
